<svg display="none" xmlns="http://www.w3.org/2000/svg">
  <svg>
    <symbol id="angle-down" viewBox="0 0 18 18">
      <g>
      <mask id="mask0" mask-type="alpha" maskUnits="userSpaceOnUse" x="0" y="0" width="18" height="18">
      <rect width="18" height="18" transform="matrix(-1 -8.74228e-08 -8.74228e-08 1 18 0)" />
      </mask>
      <g mask="url(#mask0)">
      <path d="M3.375 7.875L9 13.5L14.625 7.875" stroke="white" stroke-width="2"/>
      </g>
      </g>
    </symbol>
    <symbol id="search" viewBox="0 0 32 32">
      <g>
      <mask id="mask0" mask-type="alpha" maskUnits="userSpaceOnUse" x="0" y="0" width="32" height="32">
      <rect width="32" height="32" fill="#C4C4C4" />
      </mask>
      <g mask="url(#mask0)">
      <mask id="mask1" mask-type="alpha" maskUnits="userSpaceOnUse" x="2" y="2" width="28" height="28">
      <rect x="2" y="2" width="28" height="28" fill="#C4C4C4" />
      </mask>
      <g mask="url(#mask1)">
      <circle cx="14.0119" cy="14.0117" r="6.875" transform="rotate(-45 14.0119 14.0117)" stroke="white" stroke-width="2"/>
      <path d="M18.6523 19.271L25.1489 25.7675" stroke="white" stroke-width="2"/>
      </g>
      </g>
      </g>
    </symbol>
    <symbol id="next" viewBox="0 0 19 45">
      <g>
      <mask id="path-1-inside-1" fill="white">
      <path d="M0 9.375C0 4.19733 4.19733 0 9.375 0C14.5527 0 18.75 4.19733 18.75 9.375V20.625C18.75 25.8027 14.5527 30 9.375 30C4.19733 30 0 25.8027 0 20.625V9.375Z"/>
      </mask>
      <path d="M16.75 9.375V20.625H20.75V9.375H16.75ZM2 20.625V9.375H-2V20.625H2ZM9.375 28C5.3019 28 2 24.6981 2 20.625H-2C-2 26.9072 3.09276 32 9.375 32V28ZM16.75 20.625C16.75 24.6981 13.4481 28 9.375 28V32C15.6572 32 20.75 26.9072 20.75 20.625H16.75ZM9.375 2C13.4481 2 16.75 5.3019 16.75 9.375H20.75C20.75 3.09276 15.6572 -2 9.375 -2V2ZM9.375 -2C3.09276 -2 -2 3.09276 -2 9.375H2C2 5.3019 5.3019 2 9.375 2V-2Z" fill="white" mask="url(#path-1-inside-1)"/>
      <path d="M3 39L9 43L15 39" stroke="white" stroke-width="2"/>
      <path d="M9.5 6V14" stroke="white" stroke-width="2"/>
      </g>
    </symbol>
</svg>