<svg width="129" height="76" viewBox="0 0 129 76" fill="none" xmlns="http://www.w3.org/2000/svg">
<g filter="url(#filter0_d)">
<path d="M8.37015 67.6598C7.77587 67.6694 7.18581 67.5583 6.63575 67.3331C6.08569 67.1079 5.58708 66.7734 5.17015 66.3498C3.96015 65.1398 4.00015 63.6498 4.00015 61.5898C4.00015 59.5298 4.00015 58.0298 5.17015 56.8298C5.58961 56.4116 6.08935 56.0826 6.63929 55.8626C7.18923 55.6427 7.778 55.5363 8.37015 55.5498C9.44679 55.4954 10.5033 55.8561 11.3219 56.5575C12.1405 57.2589 12.6589 58.2476 12.7702 59.3198H10.4202C10.3457 58.8447 10.1025 58.4124 9.73516 58.102C9.36785 57.7916 8.901 57.624 8.42015 57.6298C8.14151 57.6175 7.86357 57.6666 7.60606 57.7737C7.34854 57.8809 7.11778 58.0434 6.93015 58.2498C6.47015 58.7498 6.34015 59.3198 6.34015 61.6198C6.34015 63.9198 6.47015 64.4898 6.93015 64.9898C7.11757 65.1788 7.3426 65.3263 7.59066 65.4228C7.83873 65.5193 8.1043 65.5625 8.37015 65.5498C8.85101 65.5556 9.31785 65.388 9.68516 65.0776C10.0525 64.7672 10.2957 64.3349 10.3702 63.8598H12.7402C12.6339 64.9311 12.1222 65.9213 11.3098 66.6277C10.4975 67.3341 9.44583 67.7033 8.37015 67.6598Z" fill="white"/>
<path d="M14.8008 67.5596V55.6196H22.6608V57.6996H17.1308V60.4996H21.8408V62.5796H17.1308V65.4796H22.6608V67.5596H14.8008Z" fill="white"/>
<path d="M29.5792 55.6199C30.0907 55.5823 30.6044 55.6507 31.0882 55.8206C31.5721 55.9906 32.0157 56.2585 32.3913 56.6076C32.767 56.9567 33.0666 57.3795 33.2715 57.8496C33.4764 58.3197 33.5822 58.827 33.5822 59.3399C33.5822 59.8527 33.4764 60.36 33.2715 60.8301C33.0666 61.3002 32.767 61.7231 32.3913 62.0722C32.0157 62.4213 31.5721 62.6892 31.0882 62.8591C30.6044 63.029 30.0907 63.0974 29.5792 63.0599H27.2792V67.5499H24.9492V55.6199H29.5792ZM29.4592 60.9699C29.6847 60.9875 29.9114 60.9583 30.125 60.8842C30.3386 60.81 30.5346 60.6925 30.7007 60.5389C30.8667 60.3854 30.9992 60.1991 31.0898 59.9919C31.1804 59.7847 31.2272 59.561 31.2272 59.3349C31.2272 59.1087 31.1804 58.885 31.0898 58.6778C30.9992 58.4706 30.8667 58.2844 30.7007 58.1308C30.5346 57.9773 30.3386 57.8597 30.125 57.7856C29.9114 57.7114 29.6847 57.6822 29.4592 57.6999H27.2792V60.9699H29.4592Z" fill="white"/>
<path d="M43.7305 62.0796C43.9845 62.3567 44.1807 62.6815 44.3078 63.0352C44.4348 63.3889 44.4902 63.7643 44.4705 64.1396C44.4705 66.2296 43.0605 67.5596 40.8105 67.5596H35.8105V55.6196H40.6005C42.8505 55.6196 44.2905 56.8896 44.2905 58.9096C44.3146 59.428 44.1887 59.9423 43.928 60.391C43.6673 60.8397 43.2828 61.2038 42.8205 61.4396C43.1576 61.5954 43.4627 61.8124 43.7205 62.0796H43.7305ZM40.4205 60.4496C40.611 60.4659 40.8027 60.4424 40.9836 60.3807C41.1645 60.319 41.3305 60.2203 41.4713 60.0911C41.6121 59.9618 41.7245 59.8047 41.8013 59.6298C41.8782 59.4548 41.9179 59.2657 41.9179 59.0746C41.9179 58.8835 41.8782 58.6945 41.8013 58.5195C41.7245 58.3445 41.6121 58.1874 41.4713 58.0582C41.3305 57.9289 41.1645 57.8303 40.9836 57.7686C40.8027 57.7069 40.611 57.6834 40.4205 57.6996H38.1505V60.4496H40.4205ZM40.5705 65.4496C40.9604 65.4496 41.3343 65.2948 41.61 65.0191C41.8857 64.7434 42.0405 64.3695 42.0405 63.9796C42.0405 63.5898 41.8857 63.2159 41.61 62.9402C41.3343 62.6645 40.9604 62.5096 40.5705 62.5096H38.1505V65.4496H40.5705Z" fill="white"/>
<path d="M53.9097 67.5596V59.8996L49.2597 67.5596H47.1797V55.6196H49.5197V63.2696L54.1597 55.6196H56.2397V67.5596H53.9097Z" fill="white"/>
<path d="M63.0209 67.6598C62.4233 67.6722 61.8294 67.5624 61.2757 67.3371C60.722 67.1118 60.2202 66.7759 59.8009 66.3498C58.6009 65.1398 58.6309 63.6498 58.6309 61.5898C58.6309 59.5298 58.6309 58.0298 59.8009 56.8298C60.2227 56.4091 60.7257 56.0787 61.2793 55.8587C61.8329 55.6386 62.4254 55.5335 63.0209 55.5498C64.0976 55.4954 65.154 55.8561 65.9727 56.5575C66.7913 57.2589 67.3096 58.2476 67.4209 59.3198H65.0509C64.9764 58.8447 64.7332 58.4124 64.3659 58.102C63.9986 57.7916 63.5318 57.624 63.0509 57.6298C62.7723 57.6175 62.4943 57.6666 62.2368 57.7737C61.9793 57.8809 61.7486 58.0434 61.5609 58.2498C61.1009 58.7498 60.9709 59.3198 60.9709 61.6198C60.9709 63.9198 61.1009 64.4898 61.5609 64.9898C61.7486 65.1962 61.9793 65.3587 62.2368 65.4659C62.4943 65.573 62.7723 65.6222 63.0509 65.6098C63.5318 65.6156 63.9986 65.448 64.3659 65.1376C64.7332 64.8272 64.9764 64.3949 65.0509 63.9198H67.4209C67.3073 64.9911 66.7883 65.9784 65.9702 66.6793C65.1521 67.3802 64.097 67.7418 63.0209 67.6898" fill="white"/>
<path d="M75.5605 57.6996V67.5596H73.2305V55.6196H80.7405V57.6996H75.5605Z" fill="white"/>
<path d="M87.2198 55.6199C87.7313 55.5823 88.245 55.6507 88.7288 55.8206C89.2127 55.9906 89.6563 56.2585 90.032 56.6076C90.4076 56.9567 90.7073 57.3795 90.9121 57.8496C91.117 58.3197 91.2228 58.827 91.2228 59.3399C91.2228 59.8527 91.117 60.36 90.9121 60.8301C90.7073 61.3002 90.4076 61.7231 90.032 62.0722C89.6563 62.4213 89.2127 62.6892 88.7288 62.8591C88.245 63.029 87.7313 63.0974 87.2198 63.0599H84.9198V67.5499H82.5898V55.6199H87.2198ZM87.0998 60.9699C87.3253 60.9875 87.552 60.9583 87.7656 60.8842C87.9793 60.81 88.1753 60.6925 88.3413 60.5389C88.5073 60.3854 88.6398 60.1991 88.7304 59.9919C88.821 59.7847 88.8678 59.561 88.8678 59.3349C88.8678 59.1087 88.821 58.885 88.7304 58.6778C88.6398 58.4706 88.5073 58.2844 88.3413 58.1308C88.1753 57.9773 87.9793 57.8597 87.7656 57.7856C87.552 57.7114 87.3253 57.6822 87.0998 57.6999H84.9198V60.9699H87.0998Z" fill="white"/>
<path d="M97.8507 65.5496C97.6701 66.1181 97.3169 66.6161 96.8402 66.9745C96.3635 67.333 95.7869 67.534 95.1907 67.5496H93.7607V65.4796H94.7007C94.9602 65.502 95.22 65.4414 95.4429 65.3066C95.6657 65.1719 95.84 64.9698 95.9407 64.7296L96.2907 63.8996L92.4707 55.6196H94.9007L97.4007 61.3696L99.6607 55.6196H102.081L97.8507 65.5496Z" fill="white"/>
<path d="M110.241 67.5596V57.6996H106.201V67.5596H103.871V55.6196H112.571V67.5596H110.241Z" fill="white"/>
<path d="M121.729 67.5596V57.6996H117.689V67.5596H115.359V55.6196H124.059V67.5596H121.729Z" fill="white"/>
<path d="M35.6903 48.7298L33.4703 41.5998H18.7303L16.3703 48.7298H4.07031L21.4903 0.819824H30.5803L48.0103 48.7298H35.6903ZM26.3703 18.9898L22.0303 31.7798H30.3703L26.3703 18.9898Z" fill="white"/>
<path d="M112.13 0.819824L101.37 21.9498L90.5901 0.819824H77.0101V11.3198H56.0801V17.9198H64.0801C74.0801 17.9198 80.0801 24.3798 80.0801 33.3198C80.0801 42.2598 74.1501 48.7298 64.0801 48.7298H90.7901V25.7898L97.5801 37.6298H105.12L111.92 25.7898V48.7298H123.69V0.819824H112.13Z" fill="white"/>
<path d="M68.3701 33.3198C68.4071 32.6796 68.3094 32.0388 68.0831 31.4388C67.8568 30.8388 67.507 30.2931 67.0564 29.8368C66.6058 29.3806 66.0644 29.024 65.4673 28.7903C64.8702 28.5565 64.2307 28.4507 63.5901 28.4798H56.0801V38.1698H63.5501C64.1948 38.2048 64.8397 38.1031 65.4424 37.8714C66.045 37.6396 66.5919 37.283 67.047 36.825C67.5022 36.367 67.8554 35.818 68.0834 35.2139C68.3114 34.6098 68.4091 33.9643 68.3701 33.3198Z" fill="white"/>
</g>
<defs>
<filter id="filter0_d" x="0" y="0.819824" width="128.059" height="74.8749" filterUnits="userSpaceOnUse" color-interpolation-filters="sRGB">
<feFlood flood-opacity="0" result="BackgroundImageFix"/>
<feColorMatrix in="SourceAlpha" type="matrix" values="0 0 0 0 0 0 0 0 0 0 0 0 0 0 0 0 0 0 127 0"/>
<feOffset dy="4"/>
<feGaussianBlur stdDeviation="2"/>
<feColorMatrix type="matrix" values="0 0 0 0 0 0 0 0 0 0 0 0 0 0 0 0 0 0 0.25 0"/>
<feBlend mode="normal" in2="BackgroundImageFix" result="effect1_dropShadow"/>
<feBlend mode="normal" in="SourceGraphic" in2="effect1_dropShadow" result="shape"/>
</filter>
</defs>
</svg>
